<?xml version="1.0" encoding="utf-8"?>
<!-- Generator: Adobe Illustrator 19.0.0, SVG Export Plug-In . SVG Version: 6.00 Build 0)  -->
<svg version="1.1" id="layer" xmlns="http://www.w3.org/2000/svg" xmlns:xlink="http://www.w3.org/1999/xlink" x="0px" y="0px"
	 viewBox="-153 -46 652 652" style="enable-background:new -153 -46 652 652;" xml:space="preserve">
<style type="text/css">
	.st0{fill:#0086F8;}
	.st1{fill:#FF8300;}
	.st2{fill:#51C21A;}
	.st3{fill:#333F48;}
</style>
<g id="Layer_2">
	<g id="Layer_1-2">
		<path class="st0" d="M-4.6,295.3c-3.9-5.5-9-10.2-14.8-13.5c-7.8-4.6-18.8-4.2-18.8-4.2c-3.2,7.4-11.8,10.7-19.2,7.4
			c-0.1,0-0.2-0.1-0.3-0.1c-8.5,11.1-7.7,20.4-7.6,21c0.5,14.3,14.3,43.8,69.7,43.9C4.5,348.7,9.1,313.3-4.6,295.3"/>
		<path class="st1" d="M-49.4,220.4c-15.4-15-43.9-20.6-80.4-4.3c0.1,0.4,11,46.8,60,54.1h0.1c1.1,0.1,2.3,0.2,3.7,0.3l0,0
			c0.6-7.6,6.9-13.4,14.5-13.4c1.6,0,3.3,0.3,4.8,0.8C-32.5,236.6-47.7,222-49.4,220.4z"/>
		<path class="st2" d="M-57.6,284.9L-57.6,284.9c-5.1-2.4-8.4-7.5-8.4-13.1c0-0.4,0-0.8,0.1-1.2c-2.5-0.3-5-0.4-7.5-0.4
			c-12.8,0.2-25.2,4.4-35.5,12.1c-20.6,16.1-22.4,42.4-22.4,42.4c1.1,0.1,37.5,4.9,59.6-16.9c2.3-2.3,4.3-4.8,6-7.6
			c0,0,0.6-0.9,1.5-2.5l0,0C-62.9,293.1-60.6,288.8-57.6,284.9L-57.6,284.9z"/>
		<path class="st3" d="M181.7,240.1c-10.7,0-19.8,4.5-25.3,11.8v-3.6c0-4.6-3.7-8.2-8.3-8.2l0,0c-4.6,0-8.3,3.7-8.3,8.2v93.1
			c0,4.6,3.8,8.4,8.4,8.4l0,0c4.6,0,8.4-3.8,8.4-8.4v-32.8c6.5,7.1,15.7,11.1,25.3,10.9c18.8,0,37.1-14,37.1-39.9
			C219.1,253.3,199.6,240.1,181.7,240.1z M179.8,304.3c-11.5,0-23.2-8.3-23.2-24.9c0-16.2,11.5-24.3,23.1-24.3s22.8,7.9,22.8,24.4
			S191.4,304.3,179.8,304.3z"/>
		<path class="st3" d="M85.3,319.6c10.8,0,19.8-4.5,25.3-11.8v3.5c0,4.6,3.7,8.2,8.3,8.2l0,0c4.6,0,8.3-3.7,8.3-8.2v-93.1
			c-0.1-4.6-3.8-8.3-8.4-8.3l0,0c-4.6,0-8.4,3.7-8.4,8.4v32.7C103.9,244,94.6,240,85,240.1c-18.8,0-37.1,13.9-37.1,39.9
			C47.9,306.4,67.4,319.6,85.3,319.6z M87.2,255.5c11.5,0,23.2,8.3,23.2,24.9c0,16.2-11.5,24.3-23,24.3s-22.8-7.9-22.8-24.4
			S75.6,255.5,87.2,255.5z"/>
		<path class="st3" d="M29.6,206.3c-6.5-0.1-11.8,5-12,11.5c0,0.2,0,0.4,0,0.5c-0.1,6.5,5,11.8,11.5,12c0.2,0,0.4,0,0.5,0
			c6.5,0.2,12-5,12.1-11.6c0-0.1,0-0.3,0-0.4c0.1-6.5-5.2-11.9-11.7-12C29.9,206.3,29.7,206.3,29.6,206.3z"/>
		<path class="st3" d="M29.6,240.1L29.6,240.1c-4.6,0-8.4,3.8-8.4,8.4v63l0,0c0.2,4.5,3.9,8.1,8.4,8.1l0,0c4.5,0,8.2-3.6,8.4-8.1
			l0,0v-0.3l0,0v-62.7C38,243.9,34.2,240.2,29.6,240.1z"/>
		<path class="st3" d="M250.3,241h3.3v20.2h-3.3V241z"/>
		<path class="st3" d="M258.1,241h3.3l10.1,14.3V241h3.3v20.2h-3.3L261.4,247v14.2h-3.3V241z"/>
		<path class="st3" d="M287.1,261.1h-3.3V244h-6.6v-3h16.5v3h-6.6V261.1z"/>
		<path class="st3" d="M299.8,244v5.6h6.8v3h-6.8v5.5h8.8v3h-12.1V241h11.9v3H299.8z"/>
		<path class="st3" d="M323.1,261.1l-4.6-8.3h-2.7v8.3h-3.3V241h7.2c3.1-0.2,5.9,2.2,6.1,5.3c0,0.1,0,0.3,0,0.4
			c0,2.4-1.4,4.6-3.7,5.5l5.1,8.9H323.1z M322.4,246.8c0-1.6-1.4-2.9-3-2.9c-0.1,0-0.1,0-0.2,0h-3.3v5.8h3.3
			c1.6,0.1,3.1-1.1,3.2-2.7C322.4,247,322.4,246.9,322.4,246.8z"/>
		<path class="st3" d="M330.4,241h3.3l10.1,14.3V241h3.3v20.2h-3.3L333.7,247v14.2h-3.3L330.4,241z"/>
		<path class="st3" d="M355.2,256l-1.9,5.1h-3.6l7.9-20.2h3.3l7.9,20.2h-3.6l-1.8-5.1H355.2z M359.2,245.3l-2.9,7.7h5.7L359.2,245.3
			z"/>
		<path class="st3" d="M376.5,261.1h-3.4V244h-6.6v-3H383v3h-6.6L376.5,261.1z"/>
		<path class="st3" d="M385.2,241h3.3v20.2h-3.3V241z"/>
		<path class="st3" d="M412.9,251.1c0,5.8-4.7,10.4-10.4,10.4c-5.8,0-10.4-4.7-10.4-10.4c0-5.8,4.7-10.4,10.4-10.4
			C408.3,240.6,412.9,245.3,412.9,251.1z M395.4,251.1c-0.2,3.9,2.7,7.2,6.6,7.5c3.9,0.2,7.2-2.7,7.5-6.6c0-0.3,0-0.6,0-0.8
			c0.2-3.9-2.7-7.2-6.6-7.5c-3.9-0.2-7.2,2.7-7.5,6.6C395.4,250.5,395.4,250.8,395.4,251.1z"/>
		<path class="st3" d="M416.1,241h3.3l10.1,14.3V241h3.3v20.2h-3.3L419.5,247v14.2h-3.3V241z"/>
		<path class="st3" d="M440.9,256l-1.9,5.1h-3.6l7.9-20.2h3.3l7.9,20.2h-3.6l-1.9-5.1H440.9z M444.9,245.3L442,253h5.7L444.9,245.3z
			"/>
		<path class="st3" d="M460.2,241v17.2h8.4v3h-11.8V241H460.2z"/>
		<path class="st3" d="M253.6,272.8v5.6h6.8v3h-6.8v5.5h8.8v3h-12.1v-20.2h11.9v3H253.6z"/>
		<path class="st3" d="M265.5,269.8h7c6.7,0,10.2,4.8,10.2,9.9s-3.4,10.3-10.7,10.3h-6.6V269.8z M268.9,272.8v14.1h3.5
			c3.9,0,7.1-3.1,7.1-7s-3.1-7.1-7-7.1l0,0H268.9z"/>
		<path class="st3" d="M286.1,282.9v-13.1h3.3v12.5c0,3.4,2.2,4.9,4.5,4.9s4.5-1.5,4.5-4.9v-12.5h3.3v13.1c0,5.1-3.9,7.5-7.8,7.5
			S286.1,288,286.1,282.9z"/>
		<path class="st3" d="M315,290.4c-5.1,0-10-3.7-10-10.4c0-5.9,4.7-10.6,10.5-10.7c3,0,5.9,1.2,7.9,3.5l-2.3,2.5
			c-1.4-1.8-3.5-2.8-5.8-2.7c-3.7,0-7,2.5-7,7.4c0,4.9,3.3,7.4,6.9,7.4c2.9,0,5.5-1.8,6.5-4.6l2.6,1.4
			C322.9,288,319.1,290.5,315,290.4z"/>
		<path class="st3" d="M330.7,284.9l-1.9,5.1h-3.6l7.9-20.2h3.3l7.8,20.2h-3.6l-1.9-5.1L330.7,284.9z M334.7,274.1l-2.9,7.7h5.7
			L334.7,274.1z"/>
		<path class="st3" d="M352.3,290H349v-17.2h-6.6v-3h16.5v3h-6.6V290z"/>
		<path class="st3" d="M361.5,269.8h3.3V290h-3.3V269.8z"/>
		<path class="st3" d="M389.6,279.9c-0.1,5.8-4.8,10.4-10.6,10.3c-5.8-0.1-10.4-4.8-10.3-10.6c0.1-5.7,4.7-10.3,10.4-10.3
			c5.7-0.1,10.4,4.5,10.4,10.2C389.6,279.6,389.6,279.8,389.6,279.9z M372.1,279.9c0.2,3.9,3.5,6.9,7.4,6.7c3.9-0.2,6.9-3.5,6.7-7.4
			c-0.2-3.8-3.3-6.7-7.1-6.7c-3.9,0-7.1,3.2-7.1,7.1C372.1,279.7,372.1,279.8,372.1,279.9z"/>
		<path class="st3" d="M393.1,269.8h3.3l10.1,14.3v-14.3h3.3V290h-3.3l-10.1-14.2V290h-3.3V269.8z"/>
		<path class="st3" d="M256.6,301c-1.6-0.2-3,0.9-3.2,2.5c0,0.1,0,0.2,0,0.3c0,2.1,1.8,2.9,4,3.6c3,1,6.2,1.9,6.2,5.8s-3.4,6-7.1,6
			c-2.7,0-5.3-1.1-7.2-3l2.2-2.6c1.3,1.6,3.2,2.6,5.2,2.6c1.9,0,3.5-0.8,3.5-2.6s-1.9-2.5-4-3.3c-2.6-1-6-2.1-6-6.3
			c0-4.1,3.5-5.9,6.7-5.9c2.1,0,4.2,0.8,5.7,2.3l-1.8,2.3C259.7,301.7,258.2,301.1,256.6,301z"/>
		<path class="st3" d="M280.2,304.5c0,3.3-2.6,6-5.8,6c-0.1,0-0.2,0-0.3,0h-3.7v8.3H267v-20.2h7.2c3.2-0.1,5.8,2.3,6,5.5
			C280.2,304.2,280.2,304.4,280.2,304.5z M273.6,307.5c1.7,0.1,3.1-1.2,3.2-2.9c0-0.1,0-0.1,0-0.2c0-1.6-1.3-2.8-2.8-2.8
			c-0.1,0-0.2,0-0.3,0h-3.4v5.8H273.6z"/>
		<path class="st3" d="M286.3,301.7v5.6h6.8v3h-6.8v5.5h8.8v3H283v-20.2h11.9v3H286.3z"/>
		<path class="st3" d="M307.5,319.3c-5.1,0-10-3.7-10-10.4c0-5.9,4.7-10.6,10.5-10.7c3,0,5.9,1.2,7.9,3.5l-2.3,2.5
			c-1.4-1.8-3.5-2.8-5.8-2.7c-3.7,0-7,2.5-7,7.4s3.3,7.4,6.9,7.4c2.9,0,5.5-1.8,6.5-4.6l2.7,1.4
			C315.3,316.9,311.6,319.3,307.5,319.3z"/>
		<path class="st3" d="M319.6,298.6h3.3v20.2h-3.3V298.6z"/>
		<path class="st3" d="M331.7,313.7l-1.9,5.1h-3.7l7.9-20.2h3.3l7.9,20.2h-3.6l-1.9-5.1L331.7,313.7z M335.7,303l-2.9,7.7h5.7
			L335.7,303z"/>
		<path class="st3" d="M351.1,298.6v17.2h8.4v3h-11.8v-20.2H351.1z"/>
		<path class="st3" d="M362.8,298.6h3.3v20.2h-3.3V298.6z"/>
		<path class="st3" d="M376.7,301c-1.6-0.2-3,1-3.2,2.5c0,0.1,0,0.2,0,0.3c0,2.1,1.8,2.9,4,3.6c3,1,6.2,1.9,6.2,5.8s-3.4,6-7.1,6
			c-2.7,0-5.3-1.1-7.2-3l2.2-2.6c1.3,1.6,3.2,2.6,5.3,2.6c1.9,0,3.5-0.8,3.5-2.6s-1.9-2.5-4-3.3c-2.6-1-6-2.1-6-6.3
			c0-4.1,3.5-5.9,6.7-5.9c2.1,0,4.2,0.8,5.7,2.3l-1.8,2.3C379.8,301.7,378.3,301,376.7,301z"/>
		<path class="st3" d="M394,318.8h-3.3v-17.1h-6.6v-3h16.5v3H394V318.8z"/>
		<path class="st3" d="M408.3,301c-1.6-0.2-3,0.9-3.2,2.5c0,0.1,0,0.2,0,0.3c0,2.1,1.8,2.9,4,3.6c3,1,6.2,1.9,6.2,5.8s-3.4,6-7.1,6
			c-2.7,0-5.3-1.1-7.3-3l2.2-2.6c1.3,1.6,3.2,2.6,5.3,2.6c1.9,0,3.5-0.8,3.5-2.6s-1.9-2.5-4-3.3c-2.6-1-6-2.1-6-6.3
			c0-4.1,3.5-5.9,6.7-5.9c2.1,0,4.2,0.8,5.7,2.3l-1.8,2.3C411.4,301.7,409.9,301.1,408.3,301z"/>
	</g>
</g>
</svg>
