<svg width="31" height="29" viewBox="0 0 31 29" fill="none" xmlns="http://www.w3.org/2000/svg">
<path d="M22.5455 0C19.5864 0 16.9795 1.69167 15.5 4.35C14.0205 1.69167 11.4136 0 8.45455 0C3.80455 0 0 4.35 0 9.66667C0 19.2528 15.5 29 15.5 29C15.5 29 31 19.3333 31 9.66667C31 4.35 27.1955 0 22.5455 0Z" fill="#469B03" fill-opacity="0.69"/>
<path d="M14.6262 4.83632L15.5 6.40626L16.3738 4.83632C17.6983 2.45661 19.9912 1 22.5455 1C26.5215 1 30 4.77223 30 9.66667C30 11.8203 29.1332 14.0479 27.7364 16.2257C26.3438 18.397 24.4697 20.4479 22.5668 22.2281C20.6677 24.0047 18.7643 25.4889 17.3335 26.5299C16.6191 27.0498 16.0246 27.4575 15.6104 27.7343C15.5728 27.7594 15.5367 27.7835 15.5021 27.8065C15.4671 27.783 15.4305 27.7585 15.3923 27.7328C14.978 27.454 14.3834 27.0433 13.6688 26.5203C12.2377 25.4728 10.3338 23.9808 8.43417 22.1988C6.53078 20.4133 4.65614 18.3593 3.26321 16.1911C1.86562 14.0157 1 11.7987 1 9.66667C1 4.77223 4.47847 1 8.45455 1C11.0088 1 13.3017 2.45661 14.6262 4.83632Z" stroke="#469B03" stroke-opacity="0.69" stroke-width="2"/>
</svg>
