<svg width="19" height="18" viewBox="0 0 19 18" fill="none" xmlns="http://www.w3.org/2000/svg">
<path d="M5.54159 16.5H3.16659C2.74666 16.5 2.34393 16.342 2.047 16.0607C1.75007 15.7794 1.58325 15.3978 1.58325 15V9.75C1.58325 9.35218 1.75007 8.97064 2.047 8.68934C2.34393 8.40804 2.74666 8.25 3.16659 8.25H5.54159M11.0833 6.75V3.75C11.0833 3.15326 10.833 2.58097 10.3876 2.15901C9.94223 1.73705 9.33814 1.5 8.70825 1.5L5.54159 8.25V16.5H14.4716C14.8534 16.5041 15.224 16.3773 15.5149 16.143C15.8059 15.9087 15.9977 15.5827 16.0549 15.225L17.1474 8.475C17.1819 8.26002 17.1666 8.04051 17.1026 7.83169C17.0386 7.62287 16.9274 7.42972 16.7768 7.26564C16.6262 7.10155 16.4397 6.97045 16.2303 6.88141C16.0209 6.79238 15.7936 6.74754 15.5641 6.75H11.0833Z" stroke="#469B03" stroke-opacity="0.69" stroke-width="2" stroke-linecap="round" stroke-linejoin="round"/>
</svg>
