<svg width="19" height="18" viewBox="0 0 19 18" fill="none" xmlns="http://www.w3.org/2000/svg">
<path d="M13.4582 1.5H15.572C16.02 1.49249 16.4554 1.6411 16.7954 1.91761C17.1355 2.19413 17.3565 2.57929 17.4166 3V8.25C17.3565 8.67071 17.1355 9.05587 16.7954 9.33239C16.4554 9.6089 16.02 9.75751 15.572 9.75H13.4582M7.91657 11.25V14.25C7.91657 14.8467 8.16679 15.419 8.61219 15.841C9.05759 16.2629 9.66168 16.5 10.2916 16.5L13.4582 9.75V1.5H4.52824C4.14639 1.49591 3.77585 1.6227 3.48489 1.857C3.19393 2.09129 3.00216 2.41732 2.9449 2.775L1.8524 9.525C1.81796 9.73998 1.83326 9.95949 1.89726 10.1683C1.96125 10.3771 2.0724 10.5703 2.22301 10.7344C2.37362 10.8984 2.56009 11.0296 2.76949 11.1186C2.97889 11.2076 3.20623 11.2525 3.43574 11.25H7.91657Z" stroke="#EB5757" stroke-width="2" stroke-linecap="round" stroke-linejoin="round"/>
</svg>
